{
  "source": "C:\\Users\\Peter\\Desktop\\stuff\\MIUN\\quantitative_research\\video_compression\\videos\\BVI-HD\\BVI-HD_CDVL_videos\\ORIG\\BubblesPitcher_1920x1080_60fps.mp4",
  "output": "C:\\Users\\Peter\\Desktop\\stuff\\MIUN\\quantitative_research\\video_compression\\compressed_videos\\BVI-HD\\vp9\\2.5\\BubblesPitcher_1920x1080_60fps_vp9.webm",
  "codec": "vp9",
  "ok": "Input #0, mov,mp4,m4a,3gp,3g2,mj2, from 'C:\\Users\\Peter\\Desktop\\stuff\\MIUN\\quantitative_research\\video_compression\\videos\\BVI-HD\\BVI-HD_CDVL_videos\\ORIG\\BubblesPitcher_1920x1080_60fps.mp4':\n  Metadata:\n    major_brand     : isom\n    minor_version   : 512\n    compatible_brands: isomiso2avc1mp41\n    encoder         : Lavf54.28.101\n  Duration: 00:00:05.00, start: 0.000000, bitrate: 188849 kb/s\n  Stream #0:0[0x1](und): Video: h264 (High 4:4:4 Predictive) (avc1 / 0x31637661), yuv420p(progressive), 1920x1080, 188844 kb/s, 60 fps, 60 tbr, 60 tbn (default)\n    Metadata:\n      handler_name    : VideoHandler\n      vendor_id       : [0][0][0][0]\n[out#0/webm @ 000001e99a16cc80] Codec AVOption b:a (set bitrate (in bits/s)) has not been used for any stream. The most likely reason is either wrong type (e.g. a video option with no video streams) or that it is a private option of some decoder which was not actually used for any stream.\nStream mapping:\n  Stream #0:0 -> #0:0 (h264 (native) -> vp9 (libvpx-vp9))\nPress [q] to stop, [?] for help\n[libvpx-vp9 @ 000001e99aa60240] v1.15.2-100-g40561f514\nOutput #0, webm, to 'C:\\Users\\Peter\\Desktop\\stuff\\MIUN\\quantitative_research\\video_compression\\compressed_videos\\BVI-HD\\vp9\\2.5\\BubblesPitcher_1920x1080_60fps_vp9.webm':\n  Metadata:\n    major_brand     : isom\n    minor_version   : 512\n    compatible_brands: isomiso2avc1mp41\n    encoder         : Lavf62.3.100\n  Stream #0:0(und): Video: vp9, yuv420p(tv, progressive), 1920x1080, q=2-31, 2500 kb/s, 60 fps, 1k tbn (default)\n    Metadata:\n      encoder         : Lavc62.11.100 libvpx-vp9\n      handler_name    : VideoHandler\n      vendor_id       : [0][0][0][0]\n    Side data:\n      cpb: bitrate max/min/avg: 0/0/0 buffer size: 2500000 vbv_delay: N/A\nframe=    6 fps=0.0 q=36.0 size=       1KiB time=00:00:00.10 bitrate=  50.6kbits/s speed=0.197x elapsed=0:00:00.50    \nframe=   14 fps= 14 q=25.0 size=       1KiB time=00:00:00.23 bitrate=  21.7kbits/s speed=0.228x elapsed=0:00:01.02    \nframe=   22 fps= 14 q=28.0 size=       1KiB time=00:00:00.35 bitrate=  14.5kbits/s speed=0.225x elapsed=0:00:01.55    \nframe=   30 fps= 14 q=32.0 size=       1KiB time=00:00:00.50 bitrate=  10.1kbits/s speed=0.236x elapsed=0:00:02.11    \nframe=   37 fps= 14 q=24.0 size=       1KiB time=00:00:00.60 bitrate=   8.4kbits/s speed=0.228x elapsed=0:00:02.63    \nframe=   45 fps= 14 q=35.0 size=       1KiB time=00:00:00.75 bitrate=   6.8kbits/s speed=0.236x elapsed=0:00:03.17    \nframe=   51 fps= 14 q=36.0 size=       1KiB time=00:00:00.85 bitrate=   6.0kbits/s speed=0.229x elapsed=0:00:03.70    \nframe=   59 fps= 14 q=37.0 size=       1KiB time=00:00:00.98 bitrate=   5.1kbits/s speed=0.232x elapsed=0:00:04.24    \nframe=   66 fps= 14 q=37.0 size=       1KiB time=00:00:01.10 bitrate=   4.6kbits/s speed=0.23x elapsed=0:00:04.78    \nframe=   72 fps= 14 q=37.0 size=       1KiB time=00:00:01.20 bitrate=   4.2kbits/s speed=0.227x elapsed=0:00:05.28    \nframe=   80 fps= 14 q=38.0 size=       1KiB time=00:00:01.33 bitrate=   3.8kbits/s speed=0.229x elapsed=0:00:05.81    \nframe=   87 fps= 14 q=38.0 size=       1KiB time=00:00:01.45 bitrate=   3.5kbits/s speed=0.229x elapsed=0:00:06.33    \nframe=   95 fps= 14 q=39.0 size=       1KiB time=00:00:01.58 bitrate=   3.2kbits/s speed=0.231x elapsed=0:00:06.85    \nframe=  102 fps= 14 q=39.0 size=       1KiB time=00:00:01.70 bitrate=   3.0kbits/s speed=0.23x elapsed=0:00:07.38    \nframe=  108 fps= 14 q=40.0 size=       1KiB time=00:00:01.80 bitrate=   2.8kbits/s speed=0.228x elapsed=0:00:07.90    \nframe=  117 fps= 14 q=40.0 size=       1KiB time=00:00:01.95 bitrate=   2.6kbits/s speed=0.231x elapsed=0:00:08.43    \nframe=  124 fps= 14 q=38.0 size=       1KiB time=00:00:02.06 bitrate=   2.5kbits/s speed=0.23x elapsed=0:00:08.96    \nframe=  131 fps= 14 q=43.0 size=     512KiB time=00:00:02.18 bitrate=1921.1kbits/s speed=0.23x elapsed=0:00:09.50    \nframe=  138 fps= 14 q=48.0 size=     512KiB time=00:00:02.30 bitrate=1823.6kbits/s speed=0.229x elapsed=0:00:10.02    \nframe=  144 fps= 14 q=51.0 size=     512KiB time=00:00:02.40 bitrate=1747.6kbits/s speed=0.228x elapsed=0:00:10.54    \nframe=  149 fps= 13 q=53.0 size=     512KiB time=00:00:02.48 bitrate=1689.0kbits/s speed=0.224x elapsed=0:00:11.08    \nframe=  154 fps= 13 q=53.0 size=     512KiB time=00:00:02.56 bitrate=1634.1kbits/s speed=0.221x elapsed=0:00:11.60    \nframe=  159 fps= 13 q=54.0 size=     512KiB time=00:00:02.65 bitrate=1582.8kbits/s speed=0.219x elapsed=0:00:12.12    \nframe=  163 fps= 13 q=55.0 size=     512KiB time=00:00:02.71 bitrate=1543.9kbits/s speed=0.215x elapsed=0:00:12.64    \nframe=  168 fps= 13 q=58.0 size=     512KiB time=00:00:02.80 bitrate=1498.0kbits/s speed=0.213x elapsed=0:00:13.17    \nframe=  172 fps= 13 q=56.0 size=     512KiB time=00:00:02.86 bitrate=1463.1kbits/s speed=0.209x elapsed=0:00:13.68    \nframe=  176 fps= 12 q=58.0 size=     512KiB time=00:00:02.93 bitrate=1429.9kbits/s speed=0.206x elapsed=0:00:14.21    \nframe=  180 fps= 12 q=59.0 size=     512KiB time=00:00:03.00 bitrate=1398.1kbits/s speed=0.204x elapsed=0:00:14.73    \nframe=  184 fps= 12 q=62.0 size=     512KiB time=00:00:03.06 bitrate=1367.7kbits/s speed=0.201x elapsed=0:00:15.25    \nframe=  188 fps= 12 q=47.0 size=     512KiB time=00:00:03.13 bitrate=1338.6kbits/s speed=0.199x elapsed=0:00:15.76    \nframe=  193 fps= 12 q=61.0 size=     512KiB time=00:00:03.21 bitrate=1303.9kbits/s speed=0.198x elapsed=0:00:16.27    \nframe=  197 fps= 12 q=62.0 size=     512KiB time=00:00:03.28 bitrate=1277.5kbits/s speed=0.195x elapsed=0:00:16.81    \nframe=  201 fps= 12 q=62.0 size=     512KiB time=00:00:03.35 bitrate=1252.0kbits/s speed=0.193x elapsed=0:00:17.35    \nframe=  205 fps= 11 q=62.0 size=     512KiB time=00:00:03.41 bitrate=1227.6kbits/s speed=0.191x elapsed=0:00:17.87    \nframe=  209 fps= 11 q=62.0 size=     512KiB time=00:00:03.48 bitrate=1204.1kbits/s speed=0.189x elapsed=0:00:18.38    \nframe=  213 fps= 11 q=62.0 size=     512KiB time=00:00:03.55 bitrate=1181.5kbits/s speed=0.188x elapsed=0:00:18.91    \nframe=  217 fps= 11 q=62.0 size=     512KiB time=00:00:03.61 bitrate=1159.7kbits/s speed=0.186x elapsed=0:00:19.42    \nframe=  221 fps= 11 q=62.0 size=     512KiB time=00:00:03.68 bitrate=1138.7kbits/s speed=0.185x elapsed=0:00:19.94    \nframe=  225 fps= 11 q=62.0 size=     512KiB time=00:00:03.75 bitrate=1118.5kbits/s speed=0.183x elapsed=0:00:20.48    \nframe=  229 fps= 11 q=62.0 size=     512KiB time=00:00:03.81 bitrate=1098.9kbits/s speed=0.182x elapsed=0:00:21.01    \nframe=  233 fps= 11 q=62.0 size=     512KiB time=00:00:03.88 bitrate=1080.1kbits/s speed=0.18x elapsed=0:00:21.52    \nframe=  237 fps= 11 q=62.0 size=     512KiB time=00:00:03.95 bitrate=1061.8kbits/s speed=0.179x elapsed=0:00:22.04    \nframe=  241 fps= 11 q=62.0 size=     512KiB time=00:00:04.01 bitrate=1044.2kbits/s speed=0.178x elapsed=0:00:22.58    \nframe=  245 fps= 11 q=62.0 size=     512KiB time=00:00:04.08 bitrate=1027.2kbits/s speed=0.177x elapsed=0:00:23.08    \nframe=  249 fps= 11 q=60.0 size=     512KiB time=00:00:04.15 bitrate=1010.7kbits/s speed=0.176x elapsed=0:00:23.60    \nframe=  253 fps= 10 q=61.0 size=     512KiB time=00:00:04.21 bitrate= 994.7kbits/s speed=0.175x elapsed=0:00:24.11    \nframe=  257 fps= 10 q=48.0 size=     512KiB time=00:00:04.28 bitrate= 979.2kbits/s speed=0.174x elapsed=0:00:24.63    \nframe=  262 fps= 10 q=62.0 size=    1024KiB time=00:00:04.36 bitrate=1921.1kbits/s speed=0.174x elapsed=0:00:25.14    \nframe=  266 fps= 10 q=62.0 size=    1024KiB time=00:00:04.43 bitrate=1892.2kbits/s speed=0.173x elapsed=0:00:25.68    \nframe=  270 fps= 10 q=62.0 size=    1024KiB time=00:00:04.50 bitrate=1864.1kbits/s speed=0.172x elapsed=0:00:26.20    \nframe=  273 fps= 10 q=62.0 size=    1024KiB time=00:00:04.55 bitrate=1843.7kbits/s speed=0.17x elapsed=0:00:26.70    \nframe=  276 fps= 10 q=62.0 size=    1024KiB time=00:00:04.60 bitrate=1823.6kbits/s speed=0.169x elapsed=0:00:27.23    \nframe=  276 fps=9.9 q=62.0 size=    1024KiB time=00:00:04.60 bitrate=1823.6kbits/s speed=0.166x elapsed=0:00:27.78    \nframe=  276 fps=9.7 q=62.0 size=    1024KiB time=00:00:04.60 bitrate=1823.6kbits/s speed=0.162x elapsed=0:00:28.33    \nframe=  276 fps=9.5 q=62.0 size=    1024KiB time=00:00:04.60 bitrate=1823.6kbits/s speed=0.159x elapsed=0:00:28.90    \nframe=  276 fps=9.4 q=62.0 size=    1024KiB time=00:00:04.60 bitrate=1823.6kbits/s speed=0.156x elapsed=0:00:29.42    \nframe=  276 fps=9.2 q=62.0 size=    1024KiB time=00:00:04.60 bitrate=1823.6kbits/s speed=0.154x elapsed=0:00:29.92    \nframe=  276 fps=9.1 q=62.0 size=    1024KiB time=00:00:04.60 bitrate=1823.6kbits/s speed=0.151x elapsed=0:00:30.46    \nframe=  276 fps=8.9 q=62.0 size=    1024KiB time=00:00:04.60 bitrate=1823.6kbits/s speed=0.148x elapsed=0:00:30.99    \n[out#0/webm @ 000001e99a16cc80] video:1365KiB audio:0KiB subtitle:0KiB other streams:0KiB global headers:0KiB muxing overhead: 0.202055%\nframe=  300 fps=9.6 q=62.0 Lsize=    1368KiB time=00:00:05.00 bitrate=2240.7kbits/s speed=0.161x elapsed=0:00:31.08    \n",
  "seconds": 31.292255640029907,
  "probe_out": {}
}